# Blender v2.81 (sub 16) OBJ File: ''
# www.blender.org
mtllib balaTierra.mtl
o ObjObject.002
v -0.150000 0.050000 0.050000
v -0.150000 -0.050000 -0.050000
v -0.150000 -0.050000 0.050000
v -0.150000 0.050000 -0.050000
v -0.050000 -0.050000 0.050000
v -0.050000 -0.150000 -0.050000
v -0.050000 -0.150000 0.050000
v -0.050000 -0.050000 -0.050000
v -0.050000 0.050000 0.150000
v -0.050000 -0.050000 0.150000
v -0.050000 0.050000 0.050000
v -0.050000 0.050000 -0.050000
v -0.050000 -0.050000 -0.150000
v -0.050000 0.050000 -0.150000
v -0.050000 0.150000 0.050000
v -0.050000 0.150000 -0.050000
v 0.050000 -0.150000 0.050000
v 0.050000 -0.150000 -0.050000
v 0.050000 -0.050000 0.050000
v 0.050000 -0.050000 -0.050000
v 0.050000 -0.050000 0.150000
v 0.050000 0.050000 0.150000
v 0.050000 0.050000 0.050000
v 0.050000 -0.050000 -0.150000
v 0.050000 0.050000 -0.050000
v 0.050000 0.050000 -0.150000
v 0.050000 0.150000 0.050000
v 0.050000 0.150000 -0.050000
v 0.150000 -0.050000 0.050000
v 0.150000 -0.050000 -0.050000
v 0.150000 0.050000 0.050000
v 0.150000 0.050000 -0.050000
v 0.050000 -0.050000 0.150000
v -0.050000 0.050000 0.150000
v -0.050000 -0.050000 0.150000
v 0.050000 0.050000 0.150000
v -0.050000 -0.050000 0.050000
v -0.150000 0.050000 0.050000
v -0.150000 -0.050000 0.050000
v -0.050000 0.050000 0.050000
v 0.050000 -0.150000 0.050000
v -0.050000 -0.150000 0.050000
v 0.050000 -0.050000 0.050000
v 0.050000 0.050000 0.050000
v -0.050000 0.150000 0.050000
v 0.050000 0.150000 0.050000
v 0.150000 -0.050000 0.050000
v 0.150000 0.050000 0.050000
v -0.150000 -0.050000 -0.050000
v -0.150000 0.050000 -0.050000
v -0.050000 -0.050000 -0.050000
v -0.050000 0.050000 -0.050000
v -0.050000 -0.150000 -0.050000
v 0.050000 -0.150000 -0.050000
v 0.050000 -0.050000 -0.050000
v -0.050000 0.150000 -0.050000
v 0.050000 0.050000 -0.050000
v 0.050000 0.150000 -0.050000
v 0.150000 -0.050000 -0.050000
v 0.150000 0.050000 -0.050000
v -0.050000 -0.050000 -0.150000
v -0.050000 0.050000 -0.150000
v 0.050000 -0.050000 -0.150000
v 0.050000 0.050000 -0.150000
v -0.050000 -0.150000 -0.050000
v 0.050000 -0.150000 0.050000
v -0.050000 -0.150000 0.050000
v 0.050000 -0.150000 -0.050000
v -0.050000 -0.050000 0.050000
v 0.050000 -0.050000 0.150000
v -0.050000 -0.050000 0.150000
v 0.050000 -0.050000 0.050000
v -0.150000 -0.050000 -0.050000
v -0.150000 -0.050000 0.050000
v -0.050000 -0.050000 -0.050000
v 0.050000 -0.050000 -0.050000
v 0.150000 -0.050000 0.050000
v 0.150000 -0.050000 -0.050000
v -0.050000 -0.050000 -0.150000
v 0.050000 -0.050000 -0.150000
v -0.050000 0.050000 0.150000
v 0.050000 0.050000 0.150000
v -0.050000 0.050000 0.050000
v 0.050000 0.050000 0.050000
v -0.150000 0.050000 0.050000
v -0.150000 0.050000 -0.050000
v -0.050000 0.050000 -0.050000
v 0.150000 0.050000 0.050000
v 0.050000 0.050000 -0.050000
v 0.150000 0.050000 -0.050000
v -0.050000 0.050000 -0.150000
v 0.050000 0.050000 -0.150000
v -0.050000 0.150000 0.050000
v 0.050000 0.150000 0.050000
v -0.050000 0.150000 -0.050000
v 0.050000 0.150000 -0.050000
vt 0.533203 0.500000
vt 0.533203 0.500000
vt 0.533203 0.500000
vt 0.533203 0.500000
vt 0.373047 0.500000
vt 0.373047 0.500000
vt 0.373047 0.500000
vt 0.373047 0.500000
vt 0.232422 0.500000
vt 0.232422 0.500000
vt 0.232422 0.500000
vt 0.232422 0.500000
vt 0.232422 0.500000
vt 0.232422 0.500000
vt 0.232422 0.500000
vt 0.232422 0.500000
vt 0.373047 0.500000
vt 0.373047 0.500000
vt 0.373047 0.500000
vt 0.373047 0.500000
vt 0.373047 0.500000
vt 0.373047 0.500000
vt 0.373047 0.500000
vt 0.373047 0.500000
vt 0.232422 0.500000
vt 0.232422 0.500000
vt 0.232422 0.500000
vt 0.232422 0.500000
vt 0.232422 0.500000
vt 0.232422 0.500000
vt 0.232422 0.500000
vt 0.232422 0.500000
vt 0.373047 0.500000
vt 0.373047 0.500000
vt 0.373047 0.500000
vt 0.373047 0.500000
vt 0.533203 0.500000
vt 0.533203 0.500000
vt 0.533203 0.500000
vt 0.533203 0.500000
vt 0.232422 0.500000
vt 0.232422 0.500000
vt 0.232422 0.500000
vt 0.232422 0.500000
vt 0.533203 0.500000
vt 0.533203 0.500000
vt 0.533203 0.500000
vt 0.533203 0.500000
vt 0.373047 0.500000
vt 0.373047 0.500000
vt 0.373047 0.500000
vt 0.373047 0.500000
vt 0.373047 0.500000
vt 0.373047 0.500000
vt 0.373047 0.500000
vt 0.373047 0.500000
vt 0.533203 0.500000
vt 0.533203 0.500000
vt 0.533203 0.500000
vt 0.533203 0.500000
vt 0.533203 0.500000
vt 0.533203 0.500000
vt 0.533203 0.500000
vt 0.533203 0.500000
vt 0.373047 0.500000
vt 0.373047 0.500000
vt 0.373047 0.500000
vt 0.373047 0.500000
vt 0.373047 0.500000
vt 0.373047 0.500000
vt 0.373047 0.500000
vt 0.373047 0.500000
vt 0.533203 0.500000
vt 0.533203 0.500000
vt 0.533203 0.500000
vt 0.533203 0.500000
vt 0.232422 0.500000
vt 0.232422 0.500000
vt 0.232422 0.500000
vt 0.232422 0.500000
vt 0.373047 0.500000
vt 0.373047 0.500000
vt 0.373047 0.500000
vt 0.373047 0.500000
vt 0.232422 0.500000
vt 0.232422 0.500000
vt 0.232422 0.500000
vt 0.232422 0.500000
vt 0.533203 0.500000
vt 0.533203 0.500000
vt 0.533203 0.500000
vt 0.533203 0.500000
vt 0.533203 0.500000
vt 0.533203 0.500000
vt 0.533203 0.500000
vt 0.533203 0.500000
vt 0.232422 0.500000
vt 0.232422 0.500000
vt 0.232422 0.500000
vt 0.232422 0.500000
vt 0.232422 0.500000
vt 0.232422 0.500000
vt 0.232422 0.500000
vt 0.232422 0.500000
vt 0.533203 0.500000
vt 0.533203 0.500000
vt 0.533203 0.500000
vt 0.533203 0.500000
vt 0.533203 0.500000
vt 0.533203 0.500000
vt 0.533203 0.500000
vt 0.533203 0.500000
vt 0.232422 0.500000
vt 0.232422 0.500000
vt 0.232422 0.500000
vt 0.232422 0.500000
vt 0.373047 0.500000
vt 0.373047 0.500000
vt 0.373047 0.500000
vt 0.373047 0.500000
vn -1.0000 0.0000 0.0000
vn 1.0000 0.0000 0.0000
vn 0.0000 -0.0000 1.0000
vn 0.0000 0.0000 -1.0000
vn 0.0000 -1.0000 -0.0000
vn 0.0000 1.0000 0.0000
usemtl palette.002
s 1
f 1/1/1 2/2/1 3/3/1
f 4/4/1 2/2/1 1/1/1
f 5/5/1 6/6/1 7/7/1
f 8/8/1 6/6/1 5/5/1
f 9/9/1 5/10/1 10/11/1
f 11/12/1 5/10/1 9/9/1
f 12/13/1 13/14/1 8/15/1
f 14/16/1 13/14/1 12/13/1
f 15/17/1 12/18/1 11/19/1
f 16/20/1 12/18/1 15/17/1
f 17/21/2 18/22/2 19/23/2
f 19/23/2 18/22/2 20/24/2
f 21/25/2 19/26/2 22/27/2
f 22/27/2 19/26/2 23/28/2
f 20/29/2 24/30/2 25/31/2
f 25/31/2 24/30/2 26/32/2
f 23/33/2 25/34/2 27/35/2
f 27/35/2 25/34/2 28/36/2
f 29/37/2 30/38/2 31/39/2
f 31/39/2 30/38/2 32/40/2
f 33/41/3 34/42/3 35/43/3
f 36/44/3 34/42/3 33/41/3
f 37/45/3 38/46/3 39/47/3
f 40/48/3 38/46/3 37/45/3
f 41/49/3 37/50/3 42/51/3
f 43/52/3 37/50/3 41/49/3
f 44/53/3 45/54/3 40/55/3
f 46/56/3 45/54/3 44/53/3
f 47/57/3 44/58/3 43/59/3
f 48/60/3 44/58/3 47/57/3
f 49/61/4 50/62/4 51/63/4
f 51/63/4 50/62/4 52/64/4
f 53/65/4 51/66/4 54/67/4
f 54/67/4 51/66/4 55/68/4
f 52/69/4 56/70/4 57/71/4
f 57/71/4 56/70/4 58/72/4
f 55/73/4 57/74/4 59/75/4
f 59/75/4 57/74/4 60/76/4
f 61/77/4 62/78/4 63/79/4
f 63/79/4 62/78/4 64/80/4
f 65/81/5 66/82/5 67/83/5
f 68/84/5 66/82/5 65/81/5
f 69/85/5 70/86/5 71/87/5
f 72/88/5 70/86/5 69/85/5
f 73/89/5 69/90/5 74/91/5
f 75/92/5 69/90/5 73/89/5
f 76/93/5 77/94/5 72/95/5
f 78/96/5 77/94/5 76/93/5
f 79/97/5 76/98/5 75/99/5
f 80/100/5 76/98/5 79/97/5
f 81/101/6 82/102/6 83/103/6
f 83/103/6 82/102/6 84/104/6
f 85/105/6 83/106/6 86/107/6
f 86/107/6 83/106/6 87/108/6
f 84/109/6 88/110/6 89/111/6
f 89/111/6 88/110/6 90/112/6
f 87/113/6 89/114/6 91/115/6
f 91/115/6 89/114/6 92/116/6
f 93/117/6 94/118/6 95/119/6
f 95/119/6 94/118/6 96/120/6
